<svg width="22" height="22" viewBox="0 0 22 22" fill="none" xmlns="http://www.w3.org/2000/svg">
<path d="M21.2458 7.01896C20.7954 5.8613 20.1595 4.79855 19.3667 3.86975C17.726 1.94611 15.4351 0.602288 12.8333 0.165077C12.236 0.0644651 11.6259 0 11 0C10.374 0 9.76388 0.0644651 9.16666 0.165077C6.56489 0.602288 4.27468 1.94574 2.63326 3.86901C1.84117 4.79823 1.20522 5.86061 0.75484 7.01822C0.273516 8.25434 0 9.59383 0 11C0 12.2923 0.234146 13.5269 0.643776 14.6788C1.06054 15.8505 1.66283 16.9326 2.42697 17.8833C4.07917 19.9386 6.45383 21.3791 9.16666 21.8349C9.76388 21.9355 10.374 22 11 22C11.6259 22 12.236 21.9355 12.8333 21.8349C15.5461 21.3791 17.9208 19.9386 19.573 17.8836C20.3371 16.933 20.9394 15.8509 21.3561 14.6792C21.7658 13.5273 22 12.2923 22 11C22 9.5942 21.7264 8.25471 21.2458 7.01896ZM19.9554 7.76344L18.0318 8.87376C17.6673 7.67065 17.002 6.5986 16.1233 5.74204L18.0647 4.62127C18.8847 5.52866 19.5307 6.59179 19.9554 7.76344ZM16.8817 11C16.8817 14.2431 14.2434 16.8817 11 16.8817C7.75653 16.8817 5.11825 14.2431 5.11825 11C5.11825 7.75699 7.75658 5.1183 11 5.1183C14.2434 5.1183 16.8817 7.75699 16.8817 11ZM11 1.46667C11.6273 1.46667 12.2396 1.53151 12.8333 1.6475V3.89259C12.2461 3.74077 11.6337 3.65162 11 3.65162C10.3662 3.65162 9.75384 3.74082 9.16666 3.89259V1.6475C9.76029 1.53151 10.3726 1.46667 11 1.46667ZM3.93587 4.62095L5.87737 5.74204C4.99871 6.59823 4.3327 7.67029 3.96815 8.87339L2.04456 7.76307C2.46993 6.59142 3.11592 5.5283 3.93587 4.62095ZM1.93358 13.9341L3.88577 12.8072C4.19658 14.03 4.81177 15.1297 5.65032 16.0224L3.71673 17.1385C2.92975 16.2057 2.31886 15.1211 1.93358 13.9341ZM11 20.5333C10.3726 20.5333 9.76029 20.4685 9.16666 20.3525V18.1074C9.75384 18.2593 10.3662 18.3484 11 18.3484C11.6337 18.3484 12.2461 18.2593 12.8333 18.1074V20.3525C12.2396 20.4685 11.6273 20.5333 11 20.5333ZM18.2824 17.1385L16.3496 16.0224C17.1881 15.13 17.8034 14.03 18.1141 12.8072L20.0663 13.9345C19.6811 15.1211 19.0702 16.2057 18.2824 17.1385Z" fill="white"/>
<path d="M11.6216 10.2008C10.6863 9.84883 10.3017 9.61786 10.3017 9.25474C10.3017 8.94683 10.5324 8.63891 11.2477 8.63891C11.6602 8.63891 11.9954 8.70734 12.2619 8.79036C12.4129 8.83728 12.5769 8.81978 12.7159 8.74238C12.8541 8.66539 12.9544 8.53471 12.9937 8.38105L13.0038 8.34316C13.0932 7.9926 12.8827 7.63519 12.5318 7.54462C12.2625 7.47481 11.9424 7.42398 11.5557 7.40675V6.99376C11.5557 6.71306 11.3477 6.4675 11.0682 6.44134C10.7478 6.41137 10.4779 6.66315 10.4779 6.97783V7.48374C9.30062 7.71467 8.6188 8.47379 8.6188 9.44164C8.6188 10.5087 9.42158 11.0587 10.5989 11.4547C11.4125 11.7297 11.7648 11.9936 11.7648 12.4115C11.7648 12.8515 11.3359 13.0936 10.7085 13.0936C10.2595 13.0936 9.83618 13.0023 9.46887 12.872C9.31563 12.8172 9.14585 12.8304 9.00187 12.9071C8.85797 12.9837 8.75266 13.1168 8.71256 13.2752L8.70758 13.2938C8.61162 13.6687 8.82786 14.0522 9.19812 14.1639C9.56119 14.2731 9.98809 14.3501 10.4227 14.3695V14.8608C10.4227 15.1584 10.664 15.3997 10.9617 15.3997C11.2593 15.3997 11.5006 15.1584 11.5006 14.8608V14.2925C12.7653 14.0726 13.4585 13.2365 13.4585 12.2576C13.4585 11.2679 12.9307 10.6628 11.6216 10.2008Z" fill="white"/>
</svg>
