<svg width="27" height="27" viewBox="0 0 27 27" fill="none" xmlns="http://www.w3.org/2000/svg">
<path d="M27 22.8604V0H0V22.8604H10.3711V25.418H7.11914V27H19.8809V25.418H16.6289V22.8604H27ZM25.418 1.58203V18.1143H1.58203V1.58203H25.418ZM1.58203 21.2783V19.6963H25.418V21.2783H1.58203ZM15.0469 25.418H11.9531V22.8604H15.0469V25.418Z" fill="white"/>
<path d="M12.709 15.2101H14.291V13.8032H16.3301V9.05714H12.252V7.47511H16.3301V5.89308H14.291V4.48618H12.709V5.89308H10.6699V10.6392H14.7481V12.2212H10.6699V13.8032H12.709V15.2101Z" fill="white"/>
<path d="M21.5876 7.06977L21.8413 5.50825L20.8083 5.3404L22.2738 3.87486L21.1551 2.75626L19.6896 4.22174L19.5217 3.18868L17.9602 3.44244L18.4672 6.56273L21.5876 7.06977Z" fill="white"/>
<path d="M5.8448 16.94L7.31034 15.4745L7.47824 16.5076L9.03976 16.2539L8.53272 13.1336L5.41238 12.6265L5.15867 14.188L6.19163 14.3559L4.7262 15.8214L5.8448 16.94Z" fill="white"/>
</svg>
