<svg width="22" height="22" viewBox="0 0 22 22" fill="none" xmlns="http://www.w3.org/2000/svg">
<path d="M17.6382 22.0002C17.5556 22.0002 17.4717 21.9895 17.3882 21.9671L8.71608 19.6434C8.46665 19.5765 8.25816 19.4166 8.12904 19.1929C7.99992 18.9693 7.96563 18.7087 8.03249 18.4593L8.94605 15.0498H5.95244C5.41936 15.0498 4.98563 14.6161 4.98563 14.083V12.3461C3.69621 11.4081 3.29875 10.7311 3.10543 10.0096C2.80838 8.90093 3.46865 7.75735 4.57725 7.4603C4.71248 7.42408 4.84903 7.40118 4.98563 7.39177V5.45012C4.98563 5.27214 5.12988 5.12785 5.3079 5.12785C5.48592 5.12785 5.63017 5.27214 5.63017 5.45012V14.083C5.63017 14.2607 5.77472 14.4052 5.95244 14.4052H9.11875L10.3198 9.92269C10.3658 9.75077 10.5425 9.64876 10.7145 9.69479C10.8865 9.74085 10.9885 9.91758 10.9424 10.0895L8.65507 18.6261C8.63277 18.7093 8.64424 18.7961 8.68725 18.8706C8.73031 18.9452 8.79979 18.9985 8.88297 19.0208L17.5551 21.3445C17.7268 21.3906 17.9038 21.2882 17.9499 21.1166L18.2758 19.9002C18.3218 19.7283 18.4986 19.6262 18.6705 19.6723C18.8424 19.7184 18.9445 19.8951 18.8984 20.067L18.5724 21.2834C18.4567 21.7149 18.065 22.0002 17.6382 22.0002ZM4.98559 8.03854C4.90502 8.04657 4.82432 8.06136 4.74406 8.08288C3.97869 8.28793 3.52292 9.07745 3.72797 9.84277C3.84171 10.2673 4.04753 10.7773 4.98563 11.5349V8.03854H4.98559ZM18.9333 19.0141C18.9057 19.0141 18.8776 19.0106 18.8497 19.0031C18.6778 18.957 18.5758 18.7803 18.6218 18.6084L21.3445 8.44739C21.3904 8.27573 21.2882 8.09865 21.1165 8.05268L12.4443 5.72899C12.2728 5.68297 12.0957 5.78519 12.0496 5.95686L11.283 8.81791C11.237 8.98983 11.0603 9.09184 10.8883 9.04582C10.7164 8.99976 10.6144 8.82303 10.6604 8.65111L11.427 5.79005C11.565 5.27515 12.096 4.96831 12.6111 5.10641L21.2834 7.4301C21.7982 7.56807 22.1049 8.09926 21.9669 8.61415L19.2443 18.7752C19.2058 18.9192 19.0756 19.0141 18.9333 19.0141ZM4.36185 18.9923C3.93499 18.9923 3.54337 18.7071 3.42778 18.2756L0.0330499 5.60636C-0.104924 5.09141 0.20179 4.56023 0.716646 4.42226L4.98559 3.27842V0.966806C4.98559 0.433688 5.41932 0 5.95239 0H14.9305C15.4636 0 15.8973 0.433688 15.8973 0.966806V4.85388C15.8973 5.03186 15.7531 5.17615 15.575 5.17615C15.397 5.17615 15.2528 5.03186 15.2528 4.85388V0.966806C15.2528 0.789085 15.1082 0.644537 14.9305 0.644537H5.95239C5.77467 0.644537 5.63013 0.789085 5.63013 0.966806V4.16105C5.63013 4.33902 5.48588 4.48331 5.30786 4.48331C5.12984 4.48331 4.98559 4.33902 4.98559 4.16105V3.94568L0.883495 5.04484C0.711876 5.09081 0.609653 5.26789 0.655587 5.43955L4.05032 18.1088C4.09634 18.2805 4.27329 18.3828 4.44504 18.3367L7.18905 17.6015C7.36105 17.5554 7.5377 17.6574 7.58376 17.8294C7.62982 18.0013 7.52781 18.178 7.35589 18.2241L4.61189 18.9593C4.52835 18.9816 4.44443 18.9923 4.36185 18.9923ZM15.6244 17.9511C15.5967 17.9511 15.5687 17.9475 15.5407 17.9401L12.3717 17.0909C12.1998 17.0448 12.0978 16.8681 12.1438 16.6962C12.1898 16.5243 12.3666 16.4223 12.5385 16.4683L12.8354 16.5478C13.3474 16.2837 13.7331 15.9612 13.9989 15.5732C13.7102 15.6511 13.3634 15.6756 12.9748 15.5715C12.472 15.4367 12.0517 15.1142 11.7914 14.6634C11.5311 14.2125 11.4619 13.6873 11.5967 13.1844C11.709 12.7655 11.9164 12.2511 12.6042 11.6121C13.27 10.9934 14.3121 10.3124 15.8838 9.46885C16.0338 9.38833 16.2206 9.43843 16.3102 9.58311C17.2495 11.0995 17.8115 12.2104 18.0788 13.079C18.3549 13.9763 18.2774 14.5255 18.1651 14.9445C18.0304 15.4473 17.7079 15.8676 17.2571 16.1279C16.8062 16.3882 16.2811 16.4574 15.7781 16.3226C15.3895 16.2185 15.1014 16.0238 14.8904 15.812C14.9266 16.281 15.0993 16.7531 15.4106 17.2378L15.7075 17.3174C15.8795 17.3635 15.9815 17.5402 15.9354 17.7121C15.8968 17.8561 15.7666 17.9511 15.6244 17.9511ZM13.6934 16.7777L14.5526 17.008C14.4359 16.7493 14.3517 16.4902 14.3003 16.2312C14.1262 16.4298 13.9238 16.6121 13.6934 16.7777ZM14.6726 14.5199C14.7003 14.5199 14.7284 14.5234 14.7559 14.5308C14.8681 14.5609 14.9555 14.649 14.9845 14.7615C14.9922 14.7897 15.193 15.4986 15.945 15.7C16.2814 15.7902 16.633 15.7439 16.9347 15.5697C17.2365 15.3955 17.4524 15.1142 17.5425 14.7777C17.7249 14.0971 17.746 13.1787 15.9213 10.1816C12.8425 11.8649 12.4016 12.6708 12.2193 13.3513C12.1291 13.6879 12.1754 14.0394 12.3496 14.3412C12.5238 14.6429 12.8051 14.8588 13.1416 14.949C13.9044 15.1534 14.4373 14.6218 14.4426 14.6164C14.504 14.5538 14.5872 14.5199 14.6726 14.5199ZM7.80939 13.7607C7.70682 13.7607 7.61036 13.7119 7.54964 13.6292L6.65915 12.4168C6.57579 12.3032 6.57579 12.1488 6.65915 12.0352L7.54964 10.8228C7.61036 10.7401 7.70678 10.6912 7.80939 10.6912C7.91196 10.6912 8.00842 10.7401 8.06914 10.8227L8.95967 12.0352C9.04304 12.1488 9.04304 12.3032 8.95967 12.4168L8.06914 13.6292C8.00838 13.7119 7.91192 13.7607 7.80939 13.7607ZM7.31877 12.226L7.80939 12.8941L8.30006 12.226L7.80939 11.558L7.31877 12.226ZM7.80939 9.05962C7.70682 9.05962 7.61036 9.0108 7.54964 8.92809L6.65915 7.71563C6.57579 7.6021 6.57579 7.44763 6.65915 7.3341L7.54964 6.12164C7.61036 6.03897 7.70678 5.99011 7.80939 5.99011C7.91196 5.99011 8.00842 6.03893 8.06914 6.1216L8.95967 7.3341C9.04304 7.44763 9.04304 7.6021 8.95967 7.71563L8.06914 8.92813C8.00838 9.0108 7.91192 9.05962 7.80939 9.05962ZM7.31877 7.52493L7.80939 8.19297L8.30006 7.52493L7.80939 6.85689L7.31877 7.52493ZM13.0735 4.35853C12.9709 4.35853 12.8745 4.30972 12.8137 4.22705L11.9232 3.01459C11.8399 2.90106 11.8399 2.74655 11.9232 2.63306L12.8137 1.42056C12.8745 1.33793 12.9709 1.28907 13.0735 1.28907C13.1761 1.28907 13.2725 1.33789 13.3332 1.4206L14.2237 2.63306C14.3071 2.74659 14.3071 2.90106 14.2237 3.01459L13.3332 4.22705C13.2725 4.30972 13.1761 4.35853 13.0735 4.35853ZM12.5828 2.8238L13.0735 3.49184L13.5641 2.8238L13.0735 2.15576L12.5828 2.8238ZM7.80939 4.35853C7.70682 4.35853 7.61036 4.30972 7.54964 4.227L6.65915 3.01454C6.57579 2.90102 6.57579 2.74655 6.65915 2.63302L7.54964 1.4206C7.61036 1.33793 7.70678 1.28907 7.80939 1.28907C7.91196 1.28907 8.00842 1.33789 8.06914 1.42056L8.95967 2.63306C9.04304 2.74659 9.04304 2.90106 8.95967 3.01459L8.06914 4.22705C8.00838 4.30972 7.91192 4.35853 7.80939 4.35853ZM7.31877 2.8238L7.80939 3.49184L8.30006 2.8238L7.80939 2.15576L7.31877 2.8238Z" fill="white"/>
</svg>
