<svg width="19" height="17" viewBox="0 0 19 17" fill="none" xmlns="http://www.w3.org/2000/svg">
<path d="M7.03 6.80966H18.43C18.5345 6.80966 18.62 6.72273 18.62 6.61648V5.2642C18.62 5.15795 18.5345 5.07102 18.43 5.07102H7.03C6.9255 5.07102 6.84 5.15795 6.84 5.2642V6.61648C6.84 6.72273 6.9255 6.80966 7.03 6.80966ZM6.84 11.7358C6.84 11.842 6.9255 11.929 7.03 11.929H18.43C18.5345 11.929 18.62 11.842 18.62 11.7358V10.3835C18.62 10.2773 18.5345 10.1903 18.43 10.1903H7.03C6.9255 10.1903 6.84 10.2773 6.84 10.3835V11.7358ZM18.81 0H0.19C0.0855 0 0 0.0869318 0 0.193182V1.54545C0 1.6517 0.0855 1.73864 0.19 1.73864H18.81C18.9145 1.73864 19 1.6517 19 1.54545V0.193182C19 0.0869318 18.9145 0 18.81 0ZM18.81 15.2614H0.19C0.0855 15.2614 0 15.3483 0 15.4545V16.8068C0 16.9131 0.0855 17 0.19 17H18.81C18.9145 17 19 16.9131 19 16.8068V15.4545C19 15.3483 18.9145 15.2614 18.81 15.2614ZM0.08075 8.66662L3.79288 11.6392C3.93063 11.7503 4.13488 11.6513 4.13488 11.4726V5.52741C4.13488 5.34872 3.933 5.24972 3.79288 5.3608L0.08075 8.33338C0.0557893 8.35311 0.0355913 8.37838 0.0216976 8.40726C0.00780379 8.43613 0.000581284 8.46785 0.000581284 8.5C0.000581284 8.53215 0.00780379 8.56387 0.0216976 8.59274C0.0355913 8.62162 0.0557893 8.64689 0.08075 8.66662Z" fill="white"/>
</svg>
